<?xml version="1.0" encoding="UTF-8" standalone="no"?>
<!-- Created with Inkscape (http://www.inkscape.org/) -->

<svg
   width="26.593359mm"
   height="24.561001mm"
   viewBox="0 0 26.593359 24.561001"
   version="1.1"
   id="svg8"
   xmlns="http://www.w3.org/2000/svg"
   xmlns:svg="http://www.w3.org/2000/svg"
   xmlns:rdf="http://www.w3.org/1999/02/22-rdf-syntax-ns#"
   xmlns:cc="http://creativecommons.org/ns#"
   xmlns:dc="http://purl.org/dc/elements/1.1/">
  <defs
     id="defs2" />
  <metadata
     id="metadata5">
    <rdf:RDF>
      <cc:Work
         rdf:about="">
        <dc:format>image/svg+xml</dc:format>
        <dc:type
           rdf:resource="http://purl.org/dc/dcmitype/StillImage" />
      </cc:Work>
    </rdf:RDF>
  </metadata>
  <g
     id="layer1"
     transform="translate(-47.118278,-33.711144)">
    <g
       id="g5100"
       transform="matrix(1.0016987,0,0,1.0016987,-0.82447713,-0.0781282)"
       style="fill:#ffffff">
      <g
         transform="matrix(1.193468,0,0,1.193468,31.556653,-39.367483)"
         id="g3954"
         style="fill:#ffffff">
        <g
           id="g3944"
           style="fill:#ffffff">
          <path
             id="path3834"
             d="m 13.867887,74.7218 -0.206189,0.422714 c 4.01785,1.552025 7.014386,3.584445 9.459371,6.649722 h 1.662948 1.662947 c 2.444985,-3.065277 5.441521,-5.097697 9.45937,-6.649722 L 35.700147,74.7218 c -0.01752,0.0053 -0.03529,0.0098 -0.05323,0.01344 -1.7298,0.335502 -3.399707,0.989248 -4.897892,1.916679 -1.838103,1.137843 -3.414789,2.697731 -4.584734,4.516003 h -1.380277 -1.380278 c -1.169944,-1.818272 -2.74663,-3.37816 -4.584733,-4.516003 -1.498186,-0.927431 -3.168092,-1.581174 -4.897892,-1.916679 -0.01794,-0.0037 -0.03571,-0.0081 -0.05323,-0.01344 z"
             style="fill:#ffffff;fill-opacity:1;stroke:none;stroke-width:0.189131px;stroke-linecap:butt;stroke-linejoin:miter;stroke-opacity:1" />
          <path
             id="path45"
             transform="scale(0.26458333)"
             d="m 59.517578,268.99023 c -0.656227,1.45762 -1.35626,2.89445 -2.101562,4.3086 -1.32478,2.51365 -2.789547,4.95398 -4.382813,7.30664 6.801179,1.31913 13.359391,3.88476 19.25,7.53125 6.827513,4.22646 12.734455,9.91888 17.246094,16.56055 h 1.136719 c -1.223442,-6.62455 -3.889487,-12.98059 -7.789063,-18.47461 -5.695978,-8.02494 -14.010732,-14.15888 -23.359375,-17.23243 z m 68.308592,0 c -9.34864,3.07355 -17.66535,9.20749 -23.36133,17.23243 -3.89957,5.49402 -6.563992,11.85006 -7.787106,18.47461 h 1.136719 c 4.511637,-6.64167 10.418577,-12.33409 17.246097,-16.56055 5.89061,-3.64649 12.44882,-6.21212 19.25,-7.53125 -1.59327,-2.35266 -3.05804,-4.79299 -4.38282,-7.30664 -0.7453,-1.41415 -1.44533,-2.85098 -2.10156,-4.3086 z"
             style="fill:#ffffff;fill-opacity:1;stroke:none;stroke-width:0.714824px;stroke-linecap:butt;stroke-linejoin:miter;stroke-opacity:1" />
          <circle
             r="1.7552785"
             cy="68.44088"
             cx="20.692657"
             id="path53"
             style="fill:#ffffff;stroke:none;stroke-width:0.189131" />
          <path
             transform="matrix(0.71482409,0,0,0.71482409,7.0678045,20.438966)"
             id="path49"
             d="m 12.461441,70.35544 c 2.966561,0.846581 5.679739,2.561403 7.717408,4.877668 2.188072,2.487232 3.585097,5.660135 3.942226,8.953529 0.173847,-2.296314 0.07255,-4.613335 -0.301039,-6.885716 -0.231728,-1.409508 -0.568655,-2.841756 -0.331078,-4.250289 0.273269,-1.620143 1.276012,-3.02155 1.753318,-4.59372 0.537358,-1.769971 0.369782,-3.743559 -0.458305,-5.397591 0.107733,1.441814 -0.160139,2.910079 -0.770078,4.22096 -0.744799,1.600723 -2.001773,2.958341 -3.540505,3.823987 -1.25853,-0.325588 -2.542232,-0.553829 -3.83586,-0.682012 -1.387005,-0.137436 -2.785395,-0.159811 -4.176087,-0.06682 z"
             style="fill:#ffffff;stroke:none;stroke-width:0.264583px;stroke-linecap:butt;stroke-linejoin:miter;stroke-opacity:1" />
          <path
             transform="matrix(-0.71482409,0,0,0.71482409,42.500164,20.438966)"
             style="fill:#ffffff;stroke:none;stroke-width:0.264583px;stroke-linecap:butt;stroke-linejoin:miter;stroke-opacity:1"
             d="m 12.461441,70.35544 c 2.966561,0.846581 5.679739,2.561403 7.717408,4.877668 2.188072,2.487232 3.585097,5.660135 3.942226,8.953529 0.173847,-2.296314 0.07255,-4.613335 -0.301039,-6.885716 -0.231728,-1.409508 -0.568655,-2.841756 -0.331078,-4.250289 0.273269,-1.620143 1.276012,-3.02155 1.753318,-4.59372 0.537358,-1.769971 0.369782,-3.743559 -0.458305,-5.397591 0.107733,1.441814 -0.160139,2.910079 -0.770078,4.22096 -0.744799,1.600723 -2.001773,2.958341 -3.540505,3.823987 -1.25853,-0.325588 -2.542232,-0.553829 -3.83586,-0.682012 -1.387005,-0.137436 -2.785395,-0.159811 -4.176087,-0.06682 z"
             id="path88" />
          <circle
             transform="scale(-1,1)"
             style="fill:#ffffff;stroke:none;stroke-width:0.189131"
             id="circle92"
             cx="-28.875313"
             cy="68.44088"
             r="1.7552785" />
          <path
             id="path117"
             d="m 24.783985,61.249614 a 8.8083391,8.8083391 0 0 0 -8.808421,8.808419 h 0.574842 a 8.2334361,8.2334361 0 0 1 8.233579,-8.233576 8.2334361,8.2334361 0 0 1 8.233259,8.233576 h 0.57516 a 8.8083391,8.8083391 0 0 0 -8.808419,-8.808419 z"
             style="fill:#ffffff;fill-opacity:1;stroke:none;stroke-width:0.162607" />
        </g>
      </g>
    </g>
  </g>
</svg>
