<?xml version="1.0" encoding="UTF-8" standalone="no"?>
<svg
   xmlns:dc="http://purl.org/dc/elements/1.1/"
   xmlns:cc="http://creativecommons.org/ns#"
   xmlns:rdf="http://www.w3.org/1999/02/22-rdf-syntax-ns#"
   xmlns:svg="http://www.w3.org/2000/svg"
   xmlns="http://www.w3.org/2000/svg"
   id="svg2792"
   version="1.1"
   viewBox="0 0 279 19.526995"
   height="19.526995mm"
   width="279mm">
  <defs
     id="defs2786">
    <clipPath
       id="clipPath1666"
       clipPathUnits="userSpaceOnUse">
      <rect
         y="-34.266628"
         x="-10.547262"
         height="17.37252"
         width="91.272545"
         id="rect1668"
         style="opacity:0.428;fill:#ff0000;fill-opacity:1;fill-rule:evenodd;stroke:none;stroke-width:0.24719107;stroke-opacity:1" />
    </clipPath>
  </defs>
  <metadata
     id="metadata2789">
    <rdf:RDF>
      <cc:Work
         rdf:about="">
        <dc:format>image/svg+xml</dc:format>
        <dc:type
           rdf:resource="http://purl.org/dc/dcmitype/StillImage" />
        <dc:title></dc:title>
      </cc:Work>
    </rdf:RDF>
  </metadata>
  <g
     transform="translate(-14.875828,165.91761)"
     id="layer1">
    <g
       transform="matrix(1.4578947,0,0,1.1515446,1.2968814,-196.45474)"
       id="g1662">
      <path
         id="path3391-5"
         d="m 200,35.237496 c -24.81419,-6.65109 -50.74609,-9.111536 -76.36835,-7.245907 -19.39699,1.412349 -38.555535,5.2757 -57.95719,6.62245 C 47.084484,35.904447 28.334111,34.866907 10,31.533329 c 11.715241,2.81761 23.719493,4.432049 35.76288,4.809712 30.598901,0.959537 60.9308,-6.031029 91.53981,-6.580336 11.50011,-0.20638 23.00222,0.498236 34.44534,1.66012 9.45589,0.960109 18.88006,2.232591 28.25197,3.814671 z"
         style="fill:#aade87;fill-opacity:1;stroke:none;stroke-width:0.26458332px;stroke-linecap:butt;stroke-linejoin:miter;stroke-opacity:1" />
      <path
         id="path3387-2"
         d="M 200,35.237496 C 175.01062,29.476621 149.25856,27.03324 123.63165,27.991589 104.26576,28.7158 85.020996,31.368774 65.67446,32.497372 47.127372,33.579333 28.498511,33.256761 10,31.533329 c 11.664923,3.137356 23.690252,4.932563 35.76288,5.338879 30.629697,1.030873 60.90344,-6.829946 91.53981,-7.63867 11.50015,-0.303575 23.0116,0.389256 34.44534,1.66012 9.47244,1.052865 18.90076,2.502502 28.25197,4.343838 z"
         style="fill:#aade87;fill-opacity:1;stroke:none;stroke-width:0.26458332px;stroke-linecap:butt;stroke-linejoin:miter;stroke-opacity:1" />
      <path
         style="fill:#e3f4d7;fill-opacity:1;stroke:none;stroke-width:0.26458332px;stroke-linecap:butt;stroke-linejoin:miter;stroke-opacity:1"
         d="m 200,35.237496 c -24.81419,-6.65109 -50.74609,-9.111536 -76.36835,-7.245907 -19.39699,1.412349 -38.555535,5.2757 -57.95719,6.62245 C 47.084484,35.904447 28.334111,34.866907 10,31.533329 c 11.664923,3.137356 23.690252,4.932563 35.76288,5.338879 30.629697,1.030873 60.90344,-6.829946 91.53981,-7.63867 11.50015,-0.303575 23.0116,0.389256 34.44534,1.66012 9.47244,1.052865 18.90076,2.502502 28.25197,4.343838 z"
         id="path3379-7" />
    </g>
    <text
       id="text3456"
       y="-148.19591"
       x="74.976974"
       style="font-style:normal;font-weight:normal;font-size:10.58333302px;line-height:1.25;font-family:sans-serif;letter-spacing:0px;word-spacing:0px;fill:#000000;fill-opacity:1;stroke:none;stroke-width:0.26458332"
       xml:space="preserve"><tspan
         style="font-style:normal;font-variant:normal;font-weight:bold;font-stretch:normal;font-size:3.88055563px;font-family:'liberation sans';-inkscape-font-specification:'liberation sans Bold';stroke-width:0.26458332"
         y="-148.19591"
         x="74.976974"
         id="tspan3454">Rua Valdemar Juarez S/N, Martinópole - CE. CEP 62.450-000. CPNJ 07.661.192/0001-26</tspan></text>
  </g>
</svg>
