<?xml version="1.0" encoding="UTF-8" standalone="no"?>
<!-- Created with Inkscape (http://www.inkscape.org/) -->

<svg
   xmlns:dc="http://purl.org/dc/elements/1.1/"
   xmlns:cc="http://creativecommons.org/ns#"
   xmlns:rdf="http://www.w3.org/1999/02/22-rdf-syntax-ns#"
   xmlns:svg="http://www.w3.org/2000/svg"
   xmlns="http://www.w3.org/2000/svg"
   xmlns:sodipodi="http://sodipodi.sourceforge.net/DTD/sodipodi-0.dtd"
   xmlns:inkscape="http://www.inkscape.org/namespaces/inkscape"
   width="113.64907mm"
   height="30.561001mm"
   viewBox="0 0 113.64907 30.561001"
   version="1.1"
   id="svg8"
   inkscape:version="0.92.5 (2060ec1f9f, 2020-04-08)"
   sodipodi:docname="logotipo sme.svg"
   inkscape:export-filename="/home/sme/Dropbox/documentos/logotipo sme.png"
   inkscape:export-xdpi="96"
   inkscape:export-ydpi="96">
  <defs
     id="defs2">
    <inkscape:path-effect
       is_visible="true"
       id="path-effect1234"
       effect="spiro" />
    <inkscape:path-effect
       is_visible="true"
       id="path-effect1230"
       effect="spiro" />
    <inkscape:path-effect
       effect="spiro"
       id="path-effect1226"
       is_visible="true" />
    <inkscape:path-effect
       effect="spiro"
       id="path-effect4835"
       is_visible="true" />
    <inkscape:path-effect
       effect="spiro"
       id="path-effect3978"
       is_visible="true" />
    <inkscape:path-effect
       effect="spiro"
       id="path-effect3974"
       is_visible="true" />
    <inkscape:path-effect
       effect="spiro"
       id="path-effect3970"
       is_visible="true" />
    <inkscape:path-effect
       is_visible="true"
       id="path-effect3840"
       effect="spiro" />
    <inkscape:path-effect
       effect="spiro"
       id="path-effect3836"
       is_visible="true" />
    <inkscape:path-effect
       is_visible="true"
       id="path-effect90"
       effect="spiro" />
    <inkscape:path-effect
       is_visible="true"
       id="path-effect86"
       effect="spiro" />
    <inkscape:path-effect
       is_visible="true"
       id="path-effect80"
       effect="spiro" />
    <inkscape:path-effect
       is_visible="true"
       id="path-effect76"
       effect="spiro" />
    <inkscape:path-effect
       effect="spiro"
       id="path-effect51"
       is_visible="true" />
    <inkscape:path-effect
       effect="spiro"
       id="path-effect47"
       is_visible="true" />
    <inkscape:path-effect
       effect="spiro"
       id="path-effect28"
       is_visible="true" />
    <inkscape:path-effect
       is_visible="true"
       id="path-effect24"
       effect="spiro" />
    <inkscape:path-effect
       is_visible="true"
       id="path-effect18"
       effect="spiro" />
    <inkscape:path-effect
       effect="spiro"
       id="path-effect14"
       is_visible="true" />
  </defs>
  <sodipodi:namedview
     id="base"
     pagecolor="#ffffff"
     bordercolor="#666666"
     borderopacity="1.0"
     inkscape:pageopacity="0.0"
     inkscape:pageshadow="2"
     inkscape:zoom="1.4238636"
     inkscape:cx="250.07882"
     inkscape:cy="68.098454"
     inkscape:document-units="mm"
     inkscape:current-layer="layer1"
     showgrid="false"
     inkscape:snap-global="false"
     inkscape:window-width="1366"
     inkscape:window-height="705"
     inkscape:window-x="0"
     inkscape:window-y="40"
     inkscape:window-maximized="1"
     inkscape:snap-bbox="true"
     inkscape:object-paths="true"
     inkscape:object-nodes="true"
     inkscape:snap-intersection-paths="true"
     showguides="false"
     fit-margin-top="3"
     fit-margin-left="3"
     fit-margin-right="3"
     fit-margin-bottom="3" />
  <metadata
     id="metadata5">
    <rdf:RDF>
      <cc:Work
         rdf:about="">
        <dc:format>image/svg+xml</dc:format>
        <dc:type
           rdf:resource="http://purl.org/dc/dcmitype/StillImage" />
        <dc:title />
      </cc:Work>
    </rdf:RDF>
  </metadata>
  <g
     inkscape:label="Camada 1"
     inkscape:groupmode="layer"
     id="layer1"
     transform="translate(-44.118278,-30.711145)">
    <g
       id="g5100"
       transform="matrix(1.0016987,0,0,1.0016987,-0.82447713,-0.0781282)"
       inkscape:export-xdpi="96"
       inkscape:export-ydpi="96">
      <g
         transform="matrix(1.193468,0,0,1.193468,31.556653,-39.367483)"
         id="g3954">
        <g
           id="g3944">
          <path
             inkscape:connector-curvature="0"
             id="path3834"
             d="m 13.867887,74.7218 -0.206189,0.422714 c 4.01785,1.552025 7.014386,3.584445 9.459371,6.649722 h 1.662948 1.662947 c 2.444985,-3.065277 5.441521,-5.097697 9.45937,-6.649722 L 35.700147,74.7218 c -0.01752,0.0053 -0.03529,0.0098 -0.05323,0.01344 -1.7298,0.335502 -3.399707,0.989248 -4.897892,1.916679 -1.838103,1.137843 -3.414789,2.697731 -4.584734,4.516003 h -1.380277 -1.380278 c -1.169944,-1.818272 -2.74663,-3.37816 -4.584733,-4.516003 -1.498186,-0.927431 -3.168092,-1.581174 -4.897892,-1.916679 -0.01794,-0.0037 -0.03571,-0.0081 -0.05323,-0.01344 z"
             style="fill:#000080;fill-opacity:1;stroke:none;stroke-width:0.18913051px;stroke-linecap:butt;stroke-linejoin:miter;stroke-opacity:1" />
          <path
             inkscape:connector-curvature="0"
             id="path45"
             transform="scale(0.26458333)"
             d="m 59.517578,268.99023 c -0.656227,1.45762 -1.35626,2.89445 -2.101562,4.3086 -1.32478,2.51365 -2.789547,4.95398 -4.382813,7.30664 6.801179,1.31913 13.359391,3.88476 19.25,7.53125 6.827513,4.22646 12.734455,9.91888 17.246094,16.56055 h 1.136719 c -1.223442,-6.62455 -3.889487,-12.98059 -7.789063,-18.47461 -5.695978,-8.02494 -14.010732,-14.15888 -23.359375,-17.23243 z m 68.308592,0 c -9.34864,3.07355 -17.66535,9.20749 -23.36133,17.23243 -3.89957,5.49402 -6.563992,11.85006 -7.787106,18.47461 h 1.136719 c 4.511637,-6.64167 10.418577,-12.33409 17.246097,-16.56055 5.89061,-3.64649 12.44882,-6.21212 19.25,-7.53125 -1.59327,-2.35266 -3.05804,-4.79299 -4.38282,-7.30664 -0.7453,-1.41415 -1.44533,-2.85098 -2.10156,-4.3086 z"
             style="fill:#ec9a13;fill-opacity:1;stroke:none;stroke-width:0.71482408px;stroke-linecap:butt;stroke-linejoin:miter;stroke-opacity:1" />
          <circle
             r="1.7552785"
             cy="68.44088"
             cx="20.692657"
             id="path53"
             style="fill:#447821;stroke:none;stroke-width:0.18913053" />
          <path
             transform="matrix(0.71482409,0,0,0.71482409,7.0678045,20.438966)"
             sodipodi:nodetypes="cscssscscccc"
             inkscape:original-d="m 12.461441,70.35544 c 0,0 5.289975,3.229243 7.717408,4.877668 2.427434,1.648426 2.628415,5.968754 3.942226,8.953529 3.117879,2.116149 -0.568047,-3.188751 -0.301039,-6.885716 0.05332,-0.738276 -0.281258,-3.43448 -0.331078,-4.250289 -0.107025,-1.752367 2.34313,-3.062524 1.753318,-4.59372 -0.510605,-1.325569 0.741069,-4.057812 -0.458305,-5.397591 -1.292067,-4.075596 -1.100698,2.004142 -0.770078,4.22096 0.273766,1.835609 -3.535397,3.796323 -3.540505,3.823987 1.291538,1.314339 -2.120616,-0.103191 -3.83586,-0.682012 -1.715244,-0.578818 -4.176087,-0.06682 -4.176087,-0.06682 z"
             inkscape:path-effect="#path-effect51"
             inkscape:connector-curvature="0"
             id="path49"
             d="m 12.461441,70.35544 c 2.966561,0.846581 5.679739,2.561403 7.717408,4.877668 2.188072,2.487232 3.585097,5.660135 3.942226,8.953529 0.173847,-2.296314 0.07255,-4.613335 -0.301039,-6.885716 -0.231728,-1.409508 -0.568655,-2.841756 -0.331078,-4.250289 0.273269,-1.620143 1.276012,-3.02155 1.753318,-4.59372 0.537358,-1.769971 0.369782,-3.743559 -0.458305,-5.397591 0.107733,1.441814 -0.160139,2.910079 -0.770078,4.22096 -0.744799,1.600723 -2.001773,2.958341 -3.540505,3.823987 -1.25853,-0.325588 -2.542232,-0.553829 -3.83586,-0.682012 -1.387005,-0.137436 -2.785395,-0.159811 -4.176087,-0.06682 z"
             style="fill:#447821;stroke:none;stroke-width:0.26458332px;stroke-linecap:butt;stroke-linejoin:miter;stroke-opacity:1" />
          <path
             transform="matrix(-0.71482409,0,0,0.71482409,42.500164,20.438966)"
             style="fill:#000080;stroke:none;stroke-width:0.26458332px;stroke-linecap:butt;stroke-linejoin:miter;stroke-opacity:1"
             d="m 12.461441,70.35544 c 2.966561,0.846581 5.679739,2.561403 7.717408,4.877668 2.188072,2.487232 3.585097,5.660135 3.942226,8.953529 0.173847,-2.296314 0.07255,-4.613335 -0.301039,-6.885716 -0.231728,-1.409508 -0.568655,-2.841756 -0.331078,-4.250289 0.273269,-1.620143 1.276012,-3.02155 1.753318,-4.59372 0.537358,-1.769971 0.369782,-3.743559 -0.458305,-5.397591 0.107733,1.441814 -0.160139,2.910079 -0.770078,4.22096 -0.744799,1.600723 -2.001773,2.958341 -3.540505,3.823987 -1.25853,-0.325588 -2.542232,-0.553829 -3.83586,-0.682012 -1.387005,-0.137436 -2.785395,-0.159811 -4.176087,-0.06682 z"
             id="path88"
             inkscape:connector-curvature="0"
             inkscape:path-effect="#path-effect90"
             inkscape:original-d="m 12.461441,70.35544 c 0,0 5.289975,3.229243 7.717408,4.877668 2.427434,1.648426 2.628415,5.968754 3.942226,8.953529 3.117879,2.116149 -0.568047,-3.188751 -0.301039,-6.885716 0.05332,-0.738276 -0.281258,-3.43448 -0.331078,-4.250289 -0.107025,-1.752367 2.34313,-3.062524 1.753318,-4.59372 -0.510605,-1.325569 0.741069,-4.057812 -0.458305,-5.397591 -1.292067,-4.075596 -1.100698,2.004142 -0.770078,4.22096 0.273766,1.835609 -3.535397,3.796323 -3.540505,3.823987 1.291538,1.314339 -2.120616,-0.103191 -3.83586,-0.682012 -1.715244,-0.578818 -4.176087,-0.06682 -4.176087,-0.06682 z"
             sodipodi:nodetypes="cscssscscccc" />
          <circle
             transform="scale(-1,1)"
             style="fill:#000080;stroke:none;stroke-width:0.18913053"
             id="circle92"
             cx="-28.875313"
             cy="68.44088"
             r="1.7552785" />
          <path
             inkscape:connector-curvature="0"
             id="path117"
             d="m 24.783985,61.249614 a 8.8083391,8.8083391 0 0 0 -8.808421,8.808419 h 0.574842 a 8.2334361,8.2334361 0 0 1 8.233579,-8.233576 8.2334361,8.2334361 0 0 1 8.233259,8.233576 h 0.57516 a 8.8083391,8.8083391 0 0 0 -8.808419,-8.808419 z"
             style="fill:#447821;fill-opacity:1;stroke:none;stroke-width:0.16260719" />
        </g>
      </g>
    </g>
    <g
       id="text3857"
       style="font-style:normal;font-weight:normal;font-size:14.1389246px;line-height:1.25;font-family:sans-serif;letter-spacing:0px;word-spacing:0px;fill:#447821;fill-opacity:1;stroke:none;stroke-width:0.3534731"
       aria-label="EDUCAÇÃO"
       transform="matrix(0.99998467,0,0,0.99998467,33.381659,-31.369295)">
      <path
         id="path4883"
         style="font-style:normal;font-variant:normal;font-weight:normal;font-stretch:normal;font-family:Bungee;-inkscape-font-specification:Bungee;fill:#447821;fill-opacity:1;stroke-width:0.3534731"
         d="m 51.08894,82.716751 h -6.560461 q -0.26864,0 -0.39589,-0.113111 -0.113111,-0.127251 -0.113111,-0.39589 v -9.162023 q 0,-0.26864 0.113111,-0.381751 0.12725,-0.127251 0.39589,-0.127251 h 6.560461 q 0.26864,0 0.381751,0.127251 0.12725,0.113111 0.12725,0.381751 v 1.654254 q 0,0.268639 -0.12725,0.39589 -0.113111,0.113111 -0.381751,0.113111 h -3.902343 v 1.088697 h 2.75709 q 0.26864,0 0.381751,0.127251 0.12725,0.113111 0.12725,0.381751 v 1.512865 q 0,0.268639 -0.12725,0.395889 -0.113111,0.113112 -0.381751,0.113112 h -2.75709 v 1.215947 h 3.902343 q 0.26864,0 0.381751,0.127251 0.12725,0.113111 0.12725,0.381751 v 1.654254 q 0,0.268639 -0.12725,0.39589 -0.113111,0.113111 -0.381751,0.113111 z"
         inkscape:connector-curvature="0" />
      <path
         id="path4885"
         style="font-style:normal;font-variant:normal;font-weight:normal;font-stretch:normal;font-family:Bungee;-inkscape-font-specification:Bungee;fill:#447821;fill-opacity:1;stroke-width:0.3534731"
         d="m 58.540144,82.716751 h -4.764818 q -0.268639,0 -0.39589,-0.113111 -0.113111,-0.127251 -0.113111,-0.39589 v -9.162023 q 0,-0.26864 0.113111,-0.381751 0.127251,-0.127251 0.39589,-0.127251 h 4.764818 q 1.767365,0 2.615701,0.706947 0.862474,0.706946 0.862474,2.177394 v 4.411344 q 0,1.470449 -0.862474,2.177395 -0.848336,0.706946 -2.615701,0.706946 z M 56.475861,75.23726 v 4.807234 h 1.682532 q 0.339334,0 0.494862,-0.169667 0.169667,-0.169667 0.169667,-0.52314 v -3.435759 q 0,-0.353473 -0.169667,-0.509001 -0.155528,-0.169667 -0.494862,-0.169667 z"
         inkscape:connector-curvature="0" />
      <path
         id="path4887"
         style="font-style:normal;font-variant:normal;font-weight:normal;font-stretch:normal;font-family:Bungee;-inkscape-font-specification:Bungee;fill:#447821;fill-opacity:1;stroke-width:0.3534731"
         d="m 72.481101,80.044494 q 0,0.650391 -0.197945,1.18767 -0.183806,0.52314 -0.678669,0.904891 -0.480723,0.367612 -1.329059,0.579696 -0.848335,0.212084 -2.163255,0.212084 -1.31492,0 -2.163255,-0.212084 -0.848336,-0.212084 -1.343198,-0.579696 -0.480724,-0.381751 -0.678669,-0.904891 -0.183806,-0.537279 -0.183806,-1.18767 v -6.998767 q 0,-0.26864 0.113112,-0.381751 0.12725,-0.127251 0.39589,-0.127251 h 2.219811 q 0.268639,0 0.381751,0.127251 0.12725,0.113111 0.12725,0.381751 v 6.447349 q 0,0.282779 0.212084,0.480724 0.212084,0.183806 0.947308,0.183806 0.749363,0 0.961447,-0.183806 0.212084,-0.197945 0.212084,-0.480724 v -6.447349 q 0,-0.26864 0.113111,-0.381751 0.12725,-0.127251 0.39589,-0.127251 h 2.149116 q 0.26864,0 0.381751,0.127251 0.127251,0.113111 0.127251,0.381751 z"
         inkscape:connector-curvature="0" />
      <path
         id="path4889"
         style="font-style:normal;font-variant:normal;font-weight:normal;font-stretch:normal;font-family:Bungee;-inkscape-font-specification:Bungee;fill:#447821;fill-opacity:1;stroke-width:0.3534731"
         d="m 81.1341,82.716751 h -3.449898 q -1.767365,0 -2.62984,-0.706946 -0.848335,-0.706946 -0.848335,-2.177395 v -4.397205 q 0,-1.470448 0.848335,-2.177394 0.862475,-0.721086 2.62984,-0.721086 H 81.1341 q 0.268639,0 0.381751,0.127251 0.12725,0.113111 0.12725,0.381751 v 1.71081 q 0,0.268639 -0.12725,0.395889 -0.113112,0.113112 -0.381751,0.113112 h -2.841924 q -0.438307,0 -0.650391,0.183806 -0.212083,0.169667 -0.212083,0.52314 v 3.365064 q 0,0.353473 0.212083,0.52314 0.212084,0.155529 0.650391,0.155529 H 81.1341 q 0.268639,0 0.381751,0.12725 0.12725,0.113111 0.12725,0.381751 v 1.682532 q 0,0.268639 -0.12725,0.39589 -0.113112,0.113111 -0.381751,0.113111 z"
         inkscape:connector-curvature="0" />
      <path
         id="path4891"
         style="font-style:normal;font-variant:normal;font-weight:normal;font-stretch:normal;font-family:Bungee;-inkscape-font-specification:Bungee;fill:#447821;fill-opacity:1;stroke-width:0.3534731"
         d="m 86.931035,75.5059 -0.664529,2.149116 h 2.219811 L 87.821787,75.5059 q -0.05656,-0.127251 -0.12725,-0.183806 -0.05656,-0.05656 -0.141389,-0.05656 h -0.353473 q -0.08483,0 -0.155528,0.05656 -0.05656,0.05655 -0.113112,0.183806 z m -0.805918,6.70185 q 0,0.268639 -0.127251,0.39589 -0.113111,0.113111 -0.381751,0.113111 h -2.078422 q -0.268639,0 -0.39589,-0.113111 -0.113111,-0.127251 -0.113111,-0.39589 v -3.732676 q 0,-0.424168 0.12725,-0.975586 0.14139,-0.551418 0.424168,-1.286642 l 1.230087,-3.209536 q 0.08483,-0.240362 0.2545,-0.353473 0.183806,-0.113112 0.466585,-0.113112 h 3.80337 q 0.26864,0 0.438307,0.113112 0.183806,0.113111 0.26864,0.353473 l 1.230086,3.209536 q 0.282779,0.735224 0.410029,1.286642 0.141389,0.551418 0.141389,0.975586 v 3.732676 q 0,0.268639 -0.12725,0.39589 -0.113112,0.113111 -0.381751,0.113111 h -2.134978 q -0.282778,0 -0.424167,-0.113111 -0.127251,-0.127251 -0.127251,-0.39589 V 80.2283 h -2.502589 z"
         inkscape:connector-curvature="0" />
      <path
         id="path4893"
         style="font-style:normal;font-variant:normal;font-weight:normal;font-stretch:normal;font-family:Bungee;-inkscape-font-specification:Bungee;fill:#447821;fill-opacity:1;stroke-width:0.3534731"
         d="m 98.73703,84.074088 q -0.0707,0.226223 -0.226223,0.325195 -0.155528,0.09897 -0.424168,0.09897 h -1.781504 q -0.353474,0 -0.438307,-0.155529 -0.08483,-0.155528 0.01414,-0.410028 l 0.452445,-1.230087 Q 94.848825,82.60364 94.12774,81.896693 93.406655,81.189747 93.406655,79.83241 v -4.397205 q 0,-1.470448 0.848336,-2.177394 0.862474,-0.721086 2.62984,-0.721086 h 3.449899 q 0.26864,0 0.38175,0.127251 0.12725,0.113111 0.12725,0.381751 v 1.71081 q 0,0.268639 -0.12725,0.395889 -0.11311,0.113112 -0.38175,0.113112 h -2.841926 q -0.438306,0 -0.65039,0.183806 -0.212084,0.169667 -0.212084,0.52314 v 3.365064 q 0,0.353473 0.212084,0.52314 0.212084,0.155529 0.65039,0.155529 h 2.841926 q 0.26864,0 0.38175,0.12725 0.12725,0.113111 0.12725,0.381751 v 1.682532 q 0,0.268639 -0.12725,0.39589 -0.11311,0.113111 -0.38175,0.113111 h -1.116977 z"
         inkscape:connector-curvature="0" />
      <path
         id="path4895"
         style="font-style:normal;font-variant:normal;font-weight:normal;font-stretch:normal;font-family:Bungee;-inkscape-font-specification:Bungee;fill:#447821;fill-opacity:1;stroke-width:0.3534731"
         d="m 106.13167,75.5059 -0.66453,2.149116 h 2.21981 L 107.02242,75.5059 q -0.0566,-0.127251 -0.12725,-0.183806 -0.0566,-0.05656 -0.14139,-0.05656 h -0.35348 q -0.0848,0 -0.15552,0.05656 -0.0566,0.05655 -0.11311,0.183806 z m -0.80592,6.70185 q 0,0.268639 -0.12725,0.39589 -0.11311,0.113111 -0.38175,0.113111 h -2.07843 q -0.26864,0 -0.39589,-0.113111 -0.11311,-0.127251 -0.11311,-0.39589 v -3.732676 q 0,-0.424168 0.12725,-0.975586 0.14139,-0.551418 0.42417,-1.286642 l 1.23009,-3.209536 q 0.0848,-0.240362 0.2545,-0.353473 0.1838,-0.113112 0.46658,-0.113112 h 3.80337 q 0.26864,0 0.43831,0.113112 0.18381,0.113111 0.26864,0.353473 l 1.23009,3.209536 q 0.28277,0.735224 0.41002,1.286642 0.14139,0.551418 0.14139,0.975586 v 3.732676 q 0,0.268639 -0.12725,0.39589 -0.11311,0.113111 -0.38175,0.113111 h -2.13498 q -0.28277,0 -0.42416,-0.113111 -0.12725,-0.127251 -0.12725,-0.39589 V 80.2283 h -2.50259 z m 1.28664,-10.293137 -0.39589,-0.05656 q -0.39589,-0.05656 -0.66453,-0.0707 -0.26864,-0.02828 -0.48072,0 -0.21209,0.01414 -0.42417,0.0707 -0.19795,0.04242 -0.48073,0.12725 -0.2545,0.0707 -0.38175,-0.01414 -0.12725,-0.08483 -0.12725,-0.353473 v -1.428031 q 0,-0.26864 0.12725,-0.367612 0.14139,-0.113112 0.38175,-0.212084 0.33934,-0.09897 0.56556,-0.141389 0.22622,-0.05656 0.43831,-0.05656 0.22622,0 0.49486,0.04242 0.28278,0.02828 0.70695,0.08483 l 0.24036,0.02828 0.31106,0.04242 q 0.46658,0.0707 0.73522,0.09897 0.28278,0.02828 0.48072,0.01414 0.21209,-0.01414 0.41003,-0.07069 0.19795,-0.05656 0.509,-0.155528 0.2545,-0.0707 0.38175,0.01414 0.12725,0.08483 0.12725,0.353473 V 71.2925 q 0,0.26864 -0.14139,0.381751 -0.12725,0.09897 -0.36761,0.197945 -0.33933,0.09897 -0.56555,0.155528 -0.22623,0.04242 -0.45245,0.04242 -0.22622,0 -0.509,-0.02828 -0.26864,-0.04242 -0.69281,-0.09897 z"
         inkscape:connector-curvature="0" />
      <path
         id="path4897"
         style="font-style:normal;font-variant:normal;font-weight:normal;font-stretch:normal;font-family:Bungee;-inkscape-font-specification:Bungee;fill:#447821;fill-opacity:1;stroke-width:0.3534731"
         d="m 121.38755,80.044494 q 0,0.650391 -0.19794,1.18767 -0.18381,0.52314 -0.67867,0.904891 -0.48072,0.367612 -1.3432,0.579696 -0.84833,0.212084 -2.16325,0.212084 -1.31492,0 -2.1774,-0.212084 -0.86247,-0.212084 -1.35733,-0.579696 -0.48073,-0.381751 -0.67867,-0.904891 -0.18381,-0.537279 -0.18381,-1.18767 v -4.821373 q 0,-0.65039 0.18381,-1.173531 0.19794,-0.537279 0.67867,-0.91903 0.49486,-0.381751 1.35733,-0.593835 0.86248,-0.212083 2.1774,-0.212083 1.31492,0 2.16325,0.212083 0.86248,0.212084 1.3432,0.593835 0.49486,0.381751 0.67867,0.91903 0.19794,0.523141 0.19794,1.173531 z m -5.57073,-0.509001 q 0,0.282779 0.21208,0.480724 0.21209,0.183806 0.97559,0.183806 0.7635,0 0.97558,-0.183806 0.21209,-0.197945 0.21209,-0.480724 v -3.803371 q 0,-0.268639 -0.21209,-0.452445 -0.21208,-0.197945 -0.97558,-0.197945 -0.7635,0 -0.97559,0.197945 -0.21208,0.183806 -0.21208,0.452445 z"
         inkscape:connector-curvature="0" />
    </g>
    <g
       aria-label="DE MARTINÓPOLE - CE"
       style="font-style:normal;font-weight:normal;font-size:4.33039427px;line-height:1.25;font-family:sans-serif;letter-spacing:0px;word-spacing:0px;fill:#447821;fill-opacity:1;stroke:none;stroke-width:0.112;stroke-linecap:round;stroke-linejoin:round;stroke-miterlimit:4;stroke-dasharray:none;stroke-opacity:1"
       id="text1021">
      <path
         d="m 87.286128,56.718023 q 0,0.46095 -0.181843,0.805605 -0.179728,0.342541 -0.511697,0.524384 -0.329854,0.181843 -0.756973,0.181843 h -1.205237 v -2.979261 h 1.07837 q 0.752744,0 1.165062,0.380601 0.412318,0.378487 0.412318,1.086828 z m -0.627992,0 q 0,-0.479981 -0.249505,-0.7316 -0.249505,-0.253734 -0.71257,-0.253734 h -0.44192 v 2.015071 h 0.528612 q 0.401746,0 0.638564,-0.276993 0.236819,-0.276993 0.236819,-0.752744 z"
         style="font-style:normal;font-variant:normal;font-weight:bold;font-stretch:normal;font-family:'liberation sans';-inkscape-font-specification:'liberation sans Bold';letter-spacing:0.79373783px;fill:#447821;fill-opacity:1;stroke:none;stroke-width:0.112;stroke-linecap:round;stroke-linejoin:round;stroke-miterlimit:4;stroke-dasharray:none;stroke-opacity:1"
         id="path860" />
      <path
         d="m 88.551388,58.229855 v -2.979261 h 2.342811 v 0.482095 h -1.719048 v 0.748515 h 1.590066 v 0.482095 h -1.590066 v 0.784461 h 1.80574 v 0.482095 z"
         style="font-style:normal;font-variant:normal;font-weight:bold;font-stretch:normal;font-family:'liberation sans';-inkscape-font-specification:'liberation sans Bold';letter-spacing:0.79373783px;fill:#447821;fill-opacity:1;stroke:none;stroke-width:0.112;stroke-linecap:round;stroke-linejoin:round;stroke-miterlimit:4;stroke-dasharray:none;stroke-opacity:1"
         id="path862" />
      <path
         d="m 96.704232,58.229855 v -1.805741 q 0,-0.06132 0,-0.122638 0.0021,-0.06132 0.02114,-0.526498 -0.150126,0.568787 -0.222017,0.792919 l -0.53707,1.661958 h -0.444035 l -0.53707,-1.661958 -0.226247,-0.792919 q 0.02537,0.490552 0.02537,0.649136 v 1.805741 h -0.553986 v -2.979261 h 0.835208 l 0.532841,1.666187 0.04652,0.160698 0.101494,0.399631 0.13321,-0.477866 0.547643,-1.74865 h 0.830979 v 2.979261 z"
         style="font-style:normal;font-variant:normal;font-weight:bold;font-stretch:normal;font-family:'liberation sans';-inkscape-font-specification:'liberation sans Bold';letter-spacing:0.79373783px;fill:#447821;fill-opacity:1;stroke:none;stroke-width:0.112;stroke-linecap:round;stroke-linejoin:round;stroke-miterlimit:4;stroke-dasharray:none;stroke-opacity:1"
         id="path864" />
      <path
         d="M 100.73731,58.229855 100.473,57.468652 h -1.135458 l -0.264306,0.761203 H 98.449473 L 99.5363,55.250594 h 0.73583 l 1.0826,2.979261 z m -0.833096,-2.520425 -0.01269,0.04652 q -0.02114,0.07612 -0.05075,0.173385 -0.0296,0.09726 -0.363685,1.069911 h 0.856354 l -0.29391,-0.856352 -0.09092,-0.287565 z"
         style="font-style:normal;font-variant:normal;font-weight:bold;font-stretch:normal;font-family:'liberation sans';-inkscape-font-specification:'liberation sans Bold';letter-spacing:0.79373783px;fill:#447821;fill-opacity:1;stroke:none;stroke-width:0.112;stroke-linecap:round;stroke-linejoin:round;stroke-miterlimit:4;stroke-dasharray:none;stroke-opacity:1"
         id="path866" />
      <path
         d="m 104.59911,58.229855 -0.69142,-1.131231 h -0.7316 v 1.131231 h -0.62376 v -2.979261 h 1.48857 q 0.53284,0 0.82252,0.230475 0.28968,0.228361 0.28968,0.657594 0,0.312939 -0.17761,0.541299 -0.17762,0.226247 -0.47998,0.298138 l 0.8056,1.251755 z m -0.074,-2.065818 q 0,-0.429234 -0.54976,-0.429234 h -0.79926 v 0.879612 h 0.81618 q 0.26219,0 0.39751,-0.11841 0.13533,-0.118409 0.13533,-0.331968 z"
         style="font-style:normal;font-variant:normal;font-weight:bold;font-stretch:normal;font-family:'liberation sans';-inkscape-font-specification:'liberation sans Bold';letter-spacing:0.79373783px;fill:#447821;fill-opacity:1;stroke:none;stroke-width:0.112;stroke-linecap:round;stroke-linejoin:round;stroke-miterlimit:4;stroke-dasharray:none;stroke-opacity:1"
         id="path868" />
      <path
         d="m 107.81812,55.732689 v 2.497166 h -0.62376 v -2.497166 h -0.96207 v -0.482095 h 2.55002 v 0.482095 z"
         style="font-style:normal;font-variant:normal;font-weight:bold;font-stretch:normal;font-family:'liberation sans';-inkscape-font-specification:'liberation sans Bold';letter-spacing:0.79373783px;fill:#447821;fill-opacity:1;stroke:none;stroke-width:0.112;stroke-linecap:round;stroke-linejoin:round;stroke-miterlimit:4;stroke-dasharray:none;stroke-opacity:1"
         id="path870" />
      <path
         d="m 109.91225,58.229855 v -2.979261 h 0.62376 v 2.979261 z"
         style="font-style:normal;font-variant:normal;font-weight:bold;font-stretch:normal;font-family:'liberation sans';-inkscape-font-specification:'liberation sans Bold';letter-spacing:0.79373783px;fill:#447821;fill-opacity:1;stroke:none;stroke-width:0.112;stroke-linecap:round;stroke-linejoin:round;stroke-miterlimit:4;stroke-dasharray:none;stroke-opacity:1"
         id="path872" />
      <path
         d="m 113.72331,58.229855 -1.29827,-2.294179 q 0.0381,0.334083 0.0381,0.53707 v 1.757109 h -0.55399 v -2.979261 h 0.71257 l 1.3173,2.313209 q -0.0381,-0.319282 -0.0381,-0.581474 v -1.731735 h 0.55399 v 2.979261 z"
         style="font-style:normal;font-variant:normal;font-weight:bold;font-stretch:normal;font-family:'liberation sans';-inkscape-font-specification:'liberation sans Bold';letter-spacing:0.79373783px;fill:#447821;fill-opacity:1;stroke:none;stroke-width:0.112;stroke-linecap:round;stroke-linejoin:round;stroke-miterlimit:4;stroke-dasharray:none;stroke-opacity:1"
         id="path874" />
      <path
         d="m 118.72692,56.72648 q 0,0.465179 -0.18396,0.818293 -0.18396,0.353113 -0.5265,0.541299 -0.34254,0.186072 -0.79926,0.186072 -0.702,0 -1.10163,-0.412318 -0.39752,-0.414432 -0.39752,-1.133346 0,-0.716798 0.39752,-1.118544 0.39752,-0.401745 1.10586,-0.401745 0.70834,0 1.10586,0.405974 0.39963,0.405975 0.39963,1.114315 z m -0.63645,0 q 0,-0.482094 -0.22836,-0.754858 -0.22836,-0.274879 -0.64068,-0.274879 -0.41866,0 -0.64702,0.272764 -0.22836,0.27065 -0.22836,0.756973 0,0.490553 0.23258,0.773889 0.23471,0.281222 0.63857,0.281222 0.41866,0 0.64491,-0.274878 0.22836,-0.274879 0.22836,-0.780233 z m -1.2285,-1.731734 v -0.06555 l 0.53284,-0.537071 h 0.54553 v 0.09092 l -0.71891,0.511697 z"
         style="font-style:normal;font-variant:normal;font-weight:bold;font-stretch:normal;font-family:'liberation sans';-inkscape-font-specification:'liberation sans Bold';letter-spacing:0.79373783px;fill:#447821;fill-opacity:1;stroke:none;stroke-width:0.112;stroke-linecap:round;stroke-linejoin:round;stroke-miterlimit:4;stroke-dasharray:none;stroke-opacity:1"
         id="path876" />
      <path
         d="m 122.44283,56.193639 q 0,0.287565 -0.1311,0.513811 -0.13109,0.226247 -0.37637,0.350999 -0.24316,0.122638 -0.57936,0.122638 h -0.74006 v 1.048768 h -0.62376 v -2.979261 h 1.33845 q 0.53495,0 0.82252,0.247391 0.28968,0.245276 0.28968,0.695654 z m -0.62799,0.01057 q 0,-0.469408 -0.55399,-0.469408 h -0.64491 v 0.966304 h 0.66182 q 0.25797,0 0.39752,-0.126867 0.13956,-0.128981 0.13956,-0.370029 z"
         style="font-style:normal;font-variant:normal;font-weight:bold;font-stretch:normal;font-family:'liberation sans';-inkscape-font-specification:'liberation sans Bold';letter-spacing:0.79373783px;fill:#447821;fill-opacity:1;stroke:none;stroke-width:0.112;stroke-linecap:round;stroke-linejoin:round;stroke-miterlimit:4;stroke-dasharray:none;stroke-opacity:1"
         id="path878" />
      <path
         d="m 126.57105,56.72648 q 0,0.465179 -0.18396,0.818293 -0.18395,0.353113 -0.52649,0.541299 -0.34254,0.186072 -0.79927,0.186072 -0.70199,0 -1.10162,-0.412318 -0.39752,-0.414432 -0.39752,-1.133346 0,-0.716798 0.39752,-1.118544 0.39751,-0.401745 1.10585,-0.401745 0.70834,0 1.10586,0.405974 0.39963,0.405975 0.39963,1.114315 z m -0.63645,0 q 0,-0.482094 -0.22836,-0.754858 -0.22836,-0.274879 -0.64068,-0.274879 -0.41866,0 -0.64702,0.272764 -0.22836,0.27065 -0.22836,0.756973 0,0.490553 0.23259,0.773889 0.2347,0.281222 0.63856,0.281222 0.41867,0 0.64491,-0.274878 0.22836,-0.274879 0.22836,-0.780233 z"
         style="font-style:normal;font-variant:normal;font-weight:bold;font-stretch:normal;font-family:'liberation sans';-inkscape-font-specification:'liberation sans Bold';letter-spacing:0.79373783px;fill:#447821;fill-opacity:1;stroke:none;stroke-width:0.112;stroke-linecap:round;stroke-linejoin:round;stroke-miterlimit:4;stroke-dasharray:none;stroke-opacity:1"
         id="path880" />
      <path
         d="m 127.83631,58.229855 v -2.979261 h 0.62376 v 2.497166 h 1.59853 v 0.482095 z"
         style="font-style:normal;font-variant:normal;font-weight:bold;font-stretch:normal;font-family:'liberation sans';-inkscape-font-specification:'liberation sans Bold';letter-spacing:0.79373783px;fill:#447821;fill-opacity:1;stroke:none;stroke-width:0.112;stroke-linecap:round;stroke-linejoin:round;stroke-miterlimit:4;stroke-dasharray:none;stroke-opacity:1"
         id="path882" />
      <path
         d="m 131.27523,58.229855 v -2.979261 h 2.34281 v 0.482095 h -1.71905 v 0.748515 h 1.59007 v 0.482095 h -1.59007 v 0.784461 h 1.80574 v 0.482095 z"
         style="font-style:normal;font-variant:normal;font-weight:bold;font-stretch:normal;font-family:'liberation sans';-inkscape-font-specification:'liberation sans Bold';letter-spacing:0.79373783px;fill:#447821;fill-opacity:1;stroke:none;stroke-width:0.112;stroke-linecap:round;stroke-linejoin:round;stroke-miterlimit:4;stroke-dasharray:none;stroke-opacity:1"
         id="path884" />
      <path
         d="m 136.83364,57.365044 v -0.515925 h 1.09951 v 0.515925 z"
         style="font-style:normal;font-variant:normal;font-weight:bold;font-stretch:normal;font-family:'liberation sans';-inkscape-font-specification:'liberation sans Bold';letter-spacing:0.79373783px;fill:#447821;fill-opacity:1;stroke:none;stroke-width:0.112;stroke-linecap:round;stroke-linejoin:round;stroke-miterlimit:4;stroke-dasharray:none;stroke-opacity:1"
         id="path886" />
      <path
         d="m 142.57812,57.781591 q 0.56456,0 0.78447,-0.566673 l 0.54341,0.205102 q -0.1755,0.431348 -0.51593,0.642793 -0.33831,0.209331 -0.81195,0.209331 -0.71891,0 -1.1122,-0.405975 -0.39117,-0.408089 -0.39117,-1.139689 0,-0.733714 0.37849,-1.127002 0.37848,-0.393287 1.0974,-0.393287 0.52438,0 0.85423,0.211445 0.32986,0.20933 0.46307,0.617419 l -0.54976,0.150126 q -0.0698,-0.224132 -0.27488,-0.355228 -0.20298,-0.13321 -0.47998,-0.13321 -0.42289,0 -0.64279,0.262192 -0.21779,0.262192 -0.21779,0.767545 0,0.513812 0.22413,0.784461 0.22625,0.27065 0.65125,0.27065 z"
         style="font-style:normal;font-variant:normal;font-weight:bold;font-stretch:normal;font-family:'liberation sans';-inkscape-font-specification:'liberation sans Bold';letter-spacing:0.79373783px;fill:#447821;fill-opacity:1;stroke:none;stroke-width:0.112;stroke-linecap:round;stroke-linejoin:round;stroke-miterlimit:4;stroke-dasharray:none;stroke-opacity:1"
         id="path888" />
      <path
         d="m 145.10783,58.229855 v -2.979261 h 2.34281 v 0.482095 h -1.71905 v 0.748515 h 1.59006 v 0.482095 h -1.59006 v 0.784461 h 1.80574 v 0.482095 z"
         style="font-style:normal;font-variant:normal;font-weight:bold;font-stretch:normal;font-family:'liberation sans';-inkscape-font-specification:'liberation sans Bold';letter-spacing:0.79373783px;fill:#447821;fill-opacity:1;stroke:none;stroke-width:0.112;stroke-linecap:round;stroke-linejoin:round;stroke-miterlimit:4;stroke-dasharray:none;stroke-opacity:1"
         id="path890" />
    </g>
    <g
       aria-label="SECRETARIA MUNICIPAL DE"
       style="font-style:normal;font-weight:normal;font-size:4.33039427px;line-height:1.25;font-family:sans-serif;letter-spacing:0px;word-spacing:0px;fill:#000080;fill-opacity:1;stroke:none;stroke-width:0.01172106"
       id="text1060">
      <path
         d="m 80.221228,35.876339 q 0,0.437691 -0.325626,0.670281 -0.32351,0.230475 -0.951502,0.230475 -0.573016,0 -0.898642,-0.202987 -0.325625,-0.202987 -0.418661,-0.615305 l 0.602619,-0.09938 q 0.06132,0.236818 0.238932,0.344655 0.177614,0.105723 0.492667,0.105723 0.653366,0 0.653366,-0.397517 0,-0.126867 -0.07612,-0.209331 -0.074,-0.08246 -0.211445,-0.137439 -0.135325,-0.05498 -0.522269,-0.13321 -0.334083,-0.07823 -0.465179,-0.124753 -0.131096,-0.04863 -0.236818,-0.112066 -0.105723,-0.06555 -0.179729,-0.156469 -0.074,-0.09092 -0.116294,-0.21356 -0.04018,-0.122638 -0.04018,-0.281221 0,-0.40386 0.302366,-0.61742 0.304481,-0.215674 0.883841,-0.215674 0.553986,0 0.830979,0.173385 0.279107,0.173385 0.359456,0.573016 l -0.604733,0.08246 q -0.04652,-0.192415 -0.1903,-0.28968 -0.141668,-0.09727 -0.408089,-0.09727 -0.566673,0 -0.566673,0.355228 0,0.116295 0.0592,0.1903 0.06132,0.07401 0.179728,0.126867 0.118409,0.05075 0.47998,0.128982 0.429234,0.09092 0.613191,0.169156 0.186072,0.07612 0.293909,0.179728 0.107836,0.101494 0.164927,0.245276 0.05709,0.141669 0.05709,0.32774 z"
         style="font-style:normal;font-variant:normal;font-weight:bold;font-stretch:normal;font-family:'liberation sans';-inkscape-font-specification:'liberation sans Bold';letter-spacing:0.79373783px;fill:#000080;stroke-width:0.01172106"
         id="path893" />
      <path
         d="m 81.473801,36.734806 v -2.97926 h 2.342811 v 0.482094 h -1.719048 v 0.748516 h 1.590067 v 0.482094 h -1.590067 v 0.784461 h 1.805741 v 0.482095 z"
         style="font-style:normal;font-variant:normal;font-weight:bold;font-stretch:normal;font-family:'liberation sans';-inkscape-font-specification:'liberation sans Bold';letter-spacing:0.79373783px;fill:#000080;stroke-width:0.01172106"
         id="path895" />
      <path
         d="m 86.547187,36.286543 q 0.564558,0 0.784461,-0.566673 l 0.543413,0.205102 q -0.175499,0.431347 -0.515926,0.642792 -0.338312,0.209331 -0.811948,0.209331 -0.718914,0 -1.112201,-0.405974 -0.391174,-0.408089 -0.391174,-1.139689 0,-0.733714 0.378487,-1.127002 0.378487,-0.393288 1.0974,-0.393288 0.524383,0 0.854238,0.211445 0.329854,0.209331 0.463064,0.61742 l -0.549757,0.150126 q -0.06978,-0.224132 -0.274878,-0.355228 -0.202988,-0.13321 -0.479981,-0.13321 -0.42289,0 -0.642793,0.262191 -0.217788,0.262192 -0.217788,0.767546 0,0.513811 0.224132,0.784461 0.226246,0.27065 0.651251,0.27065 z"
         style="font-style:normal;font-variant:normal;font-weight:bold;font-stretch:normal;font-family:'liberation sans';-inkscape-font-specification:'liberation sans Bold';letter-spacing:0.79373783px;fill:#000080;stroke-width:0.01172106"
         id="path897" />
      <path
         d="m 91.123676,36.734806 -0.691425,-1.131231 h -0.7316 v 1.131231 h -0.623763 v -2.97926 h 1.488573 q 0.532842,0 0.822521,0.230475 0.28968,0.22836 0.28968,0.657594 0,0.312938 -0.177614,0.541299 -0.177614,0.226246 -0.47998,0.298137 l 0.805606,1.251755 z m -0.07401,-2.065818 q 0,-0.429233 -0.549757,-0.429233 h -0.799262 v 0.879611 h 0.816178 q 0.262192,0 0.397517,-0.118409 0.135324,-0.118409 0.135324,-0.331969 z"
         style="font-style:normal;font-variant:normal;font-weight:bold;font-stretch:normal;font-family:'liberation sans';-inkscape-font-specification:'liberation sans Bold';letter-spacing:0.79373783px;fill:#000080;stroke-width:0.01172106"
         id="path899" />
      <path
         d="m 92.997898,36.734806 v -2.97926 h 2.342811 v 0.482094 h -1.719048 v 0.748516 h 1.590067 v 0.482094 h -1.590067 v 0.784461 h 1.805741 v 0.482095 z"
         style="font-style:normal;font-variant:normal;font-weight:bold;font-stretch:normal;font-family:'liberation sans';-inkscape-font-specification:'liberation sans Bold';letter-spacing:0.79373783px;fill:#000080;stroke-width:0.01172106"
         id="path901" />
      <path
         d="m 98.024765,34.23764 v 2.497166 H 97.401002 V 34.23764 h -0.962075 v -0.482094 h 2.550027 v 0.482094 z"
         style="font-style:normal;font-variant:normal;font-weight:bold;font-stretch:normal;font-family:'liberation sans';-inkscape-font-specification:'liberation sans Bold';letter-spacing:0.79373783px;fill:#000080;stroke-width:0.01172106"
         id="path903" />
      <path
         d="m 101.90349,36.734806 -0.26431,-0.761202 h -1.13546 l -0.26431,0.761202 h -0.623759 l 1.086829,-2.97926 h 0.73583 l 1.0826,2.97926 z m -0.8331,-2.520425 -0.0127,0.04652 q -0.0212,0.07612 -0.0507,0.173385 -0.0296,0.09727 -0.36369,1.069912 h 0.85636 l -0.29391,-0.856352 -0.0909,-0.287566 z"
         style="font-style:normal;font-variant:normal;font-weight:bold;font-stretch:normal;font-family:'liberation sans';-inkscape-font-specification:'liberation sans Bold';letter-spacing:0.79373783px;fill:#000080;stroke-width:0.01172106"
         id="path905" />
      <path
         d="m 105.76529,36.734806 -0.69142,-1.131231 h -0.7316 v 1.131231 h -0.62377 v -2.97926 h 1.48858 q 0.53284,0 0.82252,0.230475 0.28968,0.22836 0.28968,0.657594 0,0.312938 -0.17762,0.541299 -0.17761,0.226246 -0.47998,0.298137 l 0.80561,1.251755 z m -0.074,-2.065818 q 0,-0.429233 -0.54976,-0.429233 h -0.79926 v 0.879611 h 0.81617 q 0.2622,0 0.39752,-0.118409 0.13533,-0.118409 0.13533,-0.331969 z"
         style="font-style:normal;font-variant:normal;font-weight:bold;font-stretch:normal;font-family:'liberation sans';-inkscape-font-specification:'liberation sans Bold';letter-spacing:0.79373783px;fill:#000080;stroke-width:0.01172106"
         id="path907" />
      <path
         d="m 107.63951,36.734806 v -2.97926 h 0.62377 v 2.97926 z"
         style="font-style:normal;font-variant:normal;font-weight:bold;font-stretch:normal;font-family:'liberation sans';-inkscape-font-specification:'liberation sans Bold';letter-spacing:0.79373783px;fill:#000080;stroke-width:0.01172106"
         id="path909" />
      <path
         d="m 111.74237,36.734806 -0.26431,-0.761202 h -1.13546 l -0.26431,0.761202 h -0.62376 l 1.08683,-2.97926 h 0.73583 l 1.0826,2.97926 z m -0.8331,-2.520425 -0.0127,0.04652 q -0.0212,0.07612 -0.0508,0.173385 -0.0296,0.09727 -0.36369,1.069912 h 0.85636 l -0.29391,-0.856352 -0.0909,-0.287566 z"
         style="font-style:normal;font-variant:normal;font-weight:bold;font-stretch:normal;font-family:'liberation sans';-inkscape-font-specification:'liberation sans Bold';letter-spacing:0.79373783px;fill:#000080;stroke-width:0.01172106"
         id="path911" />
      <path
         d="m 117.86745,36.734806 v -1.805741 q 0,-0.06132 0,-0.122638 0.002,-0.06132 0.0211,-0.526498 -0.15013,0.568787 -0.22202,0.792919 l -0.53707,1.661958 h -0.44403 l -0.53707,-1.661958 -0.22625,-0.792919 q 0.0254,0.490553 0.0254,0.649136 v 1.805741 h -0.55398 v -2.97926 h 0.8352 l 0.53285,1.666186 0.0465,0.160699 0.1015,0.399631 0.13321,-0.477866 0.54764,-1.74865 h 0.83098 v 2.97926 z"
         style="font-style:normal;font-variant:normal;font-weight:bold;font-stretch:normal;font-family:'liberation sans';-inkscape-font-specification:'liberation sans Bold';letter-spacing:0.79373783px;fill:#000080;stroke-width:0.01172106"
         id="path913" />
      <path
         d="m 121.0336,36.777095 q -0.6153,0 -0.94304,-0.300252 -0.32563,-0.300252 -0.32563,-0.858467 v -1.86283 h 0.62377 v 1.814198 q 0,0.353113 0.16704,0.53707 0.16915,0.181843 0.49478,0.181843 0.33408,0 0.51381,-0.1903 0.17973,-0.192415 0.17973,-0.549758 v -1.793053 h 0.62376 v 1.831114 q 0,0.566672 -0.351,0.879611 -0.34888,0.310824 -0.98322,0.310824 z"
         style="font-style:normal;font-variant:normal;font-weight:bold;font-stretch:normal;font-family:'liberation sans';-inkscape-font-specification:'liberation sans Bold';letter-spacing:0.79373783px;fill:#000080;stroke-width:0.01172106"
         id="path915" />
      <path
         d="m 125.52974,36.734806 -1.29827,-2.294179 q 0.0381,0.334084 0.0381,0.537071 v 1.757108 h -0.55399 v -2.97926 h 0.71257 l 1.31731,2.313208 q -0.0381,-0.319282 -0.0381,-0.581474 v -1.731734 h 0.55398 v 2.97926 z"
         style="font-style:normal;font-variant:normal;font-weight:bold;font-stretch:normal;font-family:'liberation sans';-inkscape-font-specification:'liberation sans Bold';letter-spacing:0.79373783px;fill:#000080;stroke-width:0.01172106"
         id="path917" />
      <path
         d="m 127.63655,36.734806 v -2.97926 h 0.62377 v 2.97926 z"
         style="font-style:normal;font-variant:normal;font-weight:bold;font-stretch:normal;font-family:'liberation sans';-inkscape-font-specification:'liberation sans Bold';letter-spacing:0.79373783px;fill:#000080;stroke-width:0.01172106"
         id="path919" />
      <path
         d="m 131.02472,36.286543 q 0.56456,0 0.78446,-0.566673 l 0.54342,0.205102 q -0.1755,0.431347 -0.51593,0.642792 -0.33831,0.209331 -0.81195,0.209331 -0.71891,0 -1.1122,-0.405974 -0.39117,-0.408089 -0.39117,-1.139689 0,-0.733714 0.37849,-1.127002 0.37848,-0.393288 1.09739,-0.393288 0.52439,0 0.85424,0.211445 0.32986,0.209331 0.46307,0.61742 l -0.54976,0.150126 q -0.0698,-0.224132 -0.27488,-0.355228 -0.20299,-0.13321 -0.47998,-0.13321 -0.42289,0 -0.64279,0.262191 -0.21779,0.262192 -0.21779,0.767546 0,0.513811 0.22413,0.784461 0.22625,0.27065 0.65125,0.27065 z"
         style="font-style:normal;font-variant:normal;font-weight:bold;font-stretch:normal;font-family:'liberation sans';-inkscape-font-specification:'liberation sans Bold';letter-spacing:0.79373783px;fill:#000080;stroke-width:0.01172106"
         id="path921" />
      <path
         d="m 133.55443,36.734806 v -2.97926 h 0.62376 v 2.97926 z"
         style="font-style:normal;font-variant:normal;font-weight:bold;font-stretch:normal;font-family:'liberation sans';-inkscape-font-specification:'liberation sans Bold';letter-spacing:0.79373783px;fill:#000080;stroke-width:0.01172106"
         id="path923" />
      <path
         d="m 138.00193,34.69859 q 0,0.287566 -0.13109,0.513812 -0.1311,0.226246 -0.37638,0.350999 -0.24316,0.122638 -0.57936,0.122638 h -0.74005 v 1.048767 h -0.62377 v -2.97926 h 1.33845 q 0.53496,0 0.82252,0.24739 0.28968,0.245276 0.28968,0.695654 z m -0.62799,0.01057 q 0,-0.469408 -0.55399,-0.469408 h -0.6449 v 0.966303 h 0.66182 q 0.25796,0 0.39752,-0.126867 0.13955,-0.128981 0.13955,-0.370028 z"
         style="font-style:normal;font-variant:normal;font-weight:bold;font-stretch:normal;font-family:'liberation sans';-inkscape-font-specification:'liberation sans Bold';letter-spacing:0.79373783px;fill:#000080;stroke-width:0.01172106"
         id="path925" />
      <path
         d="m 141.01796,36.734806 -0.26431,-0.761202 h -1.13546 l -0.2643,0.761202 h -0.62377 l 1.08683,-2.97926 h 0.73583 l 1.0826,2.97926 z m -0.83309,-2.520425 -0.0127,0.04652 q -0.0211,0.07612 -0.0507,0.173385 -0.0296,0.09727 -0.36368,1.069912 h 0.85635 l -0.29391,-0.856352 -0.0909,-0.287566 z"
         style="font-style:normal;font-variant:normal;font-weight:bold;font-stretch:normal;font-family:'liberation sans';-inkscape-font-specification:'liberation sans Bold';letter-spacing:0.79373783px;fill:#000080;stroke-width:0.01172106"
         id="path927" />
      <path
         d="m 142.83298,36.734806 v -2.97926 h 0.62376 v 2.497165 h 1.59852 v 0.482095 z"
         style="font-style:normal;font-variant:normal;font-weight:bold;font-stretch:normal;font-family:'liberation sans';-inkscape-font-specification:'liberation sans Bold';letter-spacing:0.79373783px;fill:#000080;stroke-width:0.01172106"
         id="path929" />
      <path
         d="m 150.84627,35.222974 q 0,0.46095 -0.18184,0.805606 -0.17973,0.342541 -0.5117,0.524383 -0.32985,0.181843 -0.75697,0.181843 h -1.20524 v -2.97926 h 1.07837 q 0.75274,0 1.16506,0.380601 0.41232,0.378486 0.41232,1.086827 z m -0.62799,0 q 0,-0.47998 -0.24951,-0.7316 -0.2495,-0.253734 -0.71257,-0.253734 h -0.44192 v 2.015071 h 0.52862 q 0.40174,0 0.63856,-0.276993 0.23682,-0.276993 0.23682,-0.752744 z"
         style="font-style:normal;font-variant:normal;font-weight:bold;font-stretch:normal;font-family:'liberation sans';-inkscape-font-specification:'liberation sans Bold';letter-spacing:0.79373783px;fill:#000080;stroke-width:0.01172106"
         id="path931" />
      <path
         d="m 152.11153,36.734806 v -2.97926 h 2.34281 v 0.482094 h -1.71905 v 0.748516 h 1.59007 v 0.482094 h -1.59007 v 0.784461 h 1.80574 v 0.482095 z"
         style="font-style:normal;font-variant:normal;font-weight:bold;font-stretch:normal;font-family:'liberation sans';-inkscape-font-specification:'liberation sans Bold';letter-spacing:0.79373783px;fill:#000080;stroke-width:0.01172106"
         id="path933" />
    </g>
    <path
       style="fill:#ec9a13;fill-opacity:1;stroke:none;stroke-width:0.99999994px;stroke-linecap:butt;stroke-linejoin:miter;stroke-opacity:1"
       d="m 417.95117,47.007812 c -3.88569,1.85008 -7.83163,3.573662 -11.82617,5.175782 V 65.96875 c 0,0.712498 -0.26835,1.317652 -0.80273,1.816406 -0.53439,0.463121 -1.76177,0.695313 -3.68555,0.695313 -1.92378,0 -3.15311,-0.232192 -3.6875,-0.695313 -0.53439,-0.498754 -0.80274,-1.103908 -0.80274,-1.816406 V 55.550781 c -4.00248,1.39358 -8.05039,2.658454 -12.13086,3.804688 v 8.537109 c 0,1.63875 0.23206,3.13453 0.69532,4.488281 0.49874,1.31813 1.35319,2.458048 2.56445,3.419922 1.24687,0.926257 2.95775,1.657023 5.13086,2.191407 2.17311,0.534372 4.91733,0.800781 8.23047,0.800781 3.31313,0 6.03827,-0.266432 8.17578,-0.800781 2.17311,-0.534384 3.86495,-1.26515 5.07617,-2.191407 1.24691,-0.961874 2.10131,-2.101792 2.56445,-3.419922 0.49875,-1.353751 0.74805,-2.849531 0.74805,-4.488281 V 49.669922 c 0,-0.940767 -0.0847,-1.827452 -0.25,-2.66211 z m -210.07226,6.470704 c -2.5173,-0.0161 -5.03135,0.02843 -7.54297,0.107422 v 14.30664 c 0,1.638754 0.23022,3.13453 0.69336,4.488281 0.49875,1.318133 1.35516,2.458048 2.5664,3.419922 1.24688,0.926257 2.93867,1.657023 5.07618,2.191407 2.1375,0.534372 4.86268,0.800781 8.17578,0.800781 3.31313,0 6.03827,-0.266432 8.17578,-0.800781 2.13747,-0.534384 3.81213,-1.26515 5.02344,-2.191407 1.24682,-0.961874 2.1013,-2.101789 2.56445,-3.419922 0.49874,-1.353751 0.74805,-2.849527 0.74805,-4.488281 V 55.03125 c -3.97648,-0.43364 -7.9684,-0.785454 -11.96876,-1.046875 v 11.822266 c 0,0.712509 -0.26834,1.319605 -0.80273,1.818359 -0.53439,0.463132 -1.74464,0.693359 -3.63281,0.693359 -1.8525,0 -3.04569,-0.230223 -3.58008,-0.693359 -0.53435,-0.498754 -0.80273,-1.10585 -0.80273,-1.818359 V 53.564453 c -1.56448,-0.04396 -3.12955,-0.07594 -4.69336,-0.08594 z m -14.06055,0.421875 c -4.04644,0.27234 -8.0744,0.691031 -12.07813,1.261718 v 10.111329 c 0,0.890622 -0.21313,1.549056 -0.64062,1.976562 -0.39187,0.427502 -1.01609,0.642578 -1.87109,0.642578 h -6.35938 V 56.697266 c -4.08373,0.841971 -8.1294,1.876739 -12.12891,3.105468 v 16.265625 c 0,0.676876 0.14273,1.175469 0.42774,1.496094 0.32062,0.285014 0.81922,0.427735 1.49609,0.427735 h 18.00782 c 4.45313,0 7.74922,-0.890611 9.88671,-2.671876 2.17314,-1.781253 3.25977,-4.525465 3.25977,-8.230468 z m 46.06055,1.914062 v 11.275391 c 0,3.705003 1.06955,6.449215 3.20703,8.230468 2.17315,1.781265 5.48626,2.671876 9.93945,2.671876 h 13.03906 c 0.67688,0 1.15835,-0.142717 1.44336,-0.427735 0.32051,-0.320617 0.48047,-0.819218 0.48047,-1.496094 v -6.359375 c 0,-0.676879 -0.15989,-1.158364 -0.48047,-1.443359 -0.28497,-0.320617 -0.76648,-0.480469 -1.44336,-0.480469 h -10.74023 c -1.10442,0 -1.9246,-0.196014 -2.45899,-0.58789 -0.53438,-0.427503 -0.80078,-1.085936 -0.80078,-1.976563 v -7.644531 c -4.05653,-0.632509 -8.11687,-1.235855 -12.18554,-1.761719 z m 139.09375,5.144531 c -10.8891,2.708681 -21.99767,4.534068 -33.17969,5.445313 v 9.664062 c 0,0.676876 0.14287,1.175469 0.42773,1.496094 0.32051,0.285014 0.81926,0.427735 1.4961,0.427735 h 7.85547 c 0.67687,0 1.15838,-0.142717 1.44335,-0.427735 0.32051,-0.320617 0.48047,-0.819218 0.48047,-1.496094 v -7.482421 h 9.45899 v 7.482421 c 0,0.676876 0.15989,1.175469 0.48047,1.496094 0.35641,0.285014 0.891,0.427735 1.60351,0.427735 h 8.06836 c 0.67688,0 1.15835,-0.142717 1.44336,-0.427735 0.32051,-0.320617 0.48047,-0.819218 0.48047,-1.496094 V 61.960938 c 0,-0.316048 -0.0272,-0.657703 -0.0586,-1.001954 z m -105.70313,0.109375 c -0.0262,0.308298 -0.0449,0.610706 -0.0449,0.892579 v 14.107421 c 0,0.676876 0.14283,1.175469 0.42773,1.496094 0.32051,0.285014 0.81918,0.427735 1.4961,0.427735 h 7.85547 c 0.67687,0 1.15834,-0.142717 1.44336,-0.427735 0.3205,-0.320617 0.48046,-0.819218 0.48046,-1.496094 v -7.482421 h 9.45899 v 7.482421 c 0,0.676876 0.15985,1.175469 0.48047,1.496094 0.35641,0.285014 0.891,0.427735 1.60351,0.427735 h 8.07032 c 0.67691,0 1.15639,-0.142717 1.4414,-0.427735 0.32051,-0.320617 0.48242,-0.819218 0.48242,-1.496094 V 65.847656 c -11.10829,-1.133732 -22.1539,-2.917483 -33.19531,-4.779297 z m 39.17969,5.31836 v 0.703125 c 0,3.420007 0.90775,6.021481 2.72461,7.802734 1.81689,1.78125 4.59729,2.795545 8.33789,3.044922 l -1.71094,4.650391 c -0.24945,0.641246 -0.26665,1.156955 -0.0527,1.548828 0.21354,0.391876 0.7656,0.58789 1.65625,0.58789 h 6.73242 c 0.67687,0 1.21165,-0.123673 1.60351,-0.373047 0.3919,-0.249373 0.67734,-0.660466 0.85547,-1.230468 l 1.81641,-5.128906 h 4.2207 c 0.67692,0 1.15643,-0.142717 1.44141,-0.427735 0.3205,-0.320617 0.48242,-0.819218 0.48242,-1.496094 v -6.359375 c 0,-0.676879 -0.16177,-1.158364 -0.48242,-1.443359 -0.28498,-0.320617 -0.76449,-0.480469 -1.44141,-0.480469 h -10.74023 c -1.10438,0 -1.92265,-0.196014 -2.45703,-0.58789 -0.0557,-0.04456 -0.0966,-0.10277 -0.14649,-0.152344 -1.28711,-0.02531 -2.57481,-0.05929 -3.86133,-0.109375 -2.9996,-0.11679 -5.99068,-0.312237 -8.97851,-0.548828 z m -171.70899,1.505859 c -5.15372,2.629971 -10.12557,5.615972 -14.86718,8.931641 0.0696,0.303302 0.18135,0.555344 0.3457,0.740234 0.32062,0.285014 0.81921,0.427735 1.49609,0.427735 h 24.79493 c 0.67687,0 1.15835,-0.142717 1.44335,-0.427735 0.32062,-0.320617 0.48047,-0.819218 0.48047,-1.496094 v -6.251953 c 0,-0.676879 -0.15985,-1.158364 -0.48047,-1.443359 -0.28501,-0.320617 -0.76648,-0.480469 -1.44335,-0.480469 z"
       id="path1232"
       transform="matrix(0.26458333,0,0,0.26458333,44.118278,30.711144)"
       inkscape:connector-curvature="0" />
    <path
       style="fill:#000080;stroke:none;stroke-width:0.99999994px;stroke-linecap:butt;stroke-linejoin:miter;stroke-opacity:1"
       d="m 418.20117,52.492188 c -3.96728,1.833969 -7.99484,3.53879 -12.07617,5.103515 v 8.373047 c 0,0.712498 -0.26835,1.317652 -0.80273,1.816406 -0.53439,0.463121 -1.76177,0.695313 -3.68555,0.695313 -1.92378,0 -3.15311,-0.232192 -3.6875,-0.695313 -0.53439,-0.498754 -0.80274,-1.103908 -0.80274,-1.816406 v -5.183594 c -4.00483,1.31773 -8.04997,2.512086 -12.13086,3.572266 v 3.535156 c 0,1.63875 0.23206,3.13453 0.69532,4.488281 0.49874,1.31813 1.35319,2.458048 2.56445,3.419922 1.24687,0.926257 2.95775,1.657023 5.13086,2.191407 2.17311,0.534371 4.91733,0.800781 8.23047,0.800781 3.31313,0 6.03827,-0.266433 8.17578,-0.800781 2.17311,-0.534384 3.86495,-1.26515 5.07617,-2.191407 1.24691,-0.961874 2.10132,-2.101792 2.56445,-3.419922 0.49875,-1.353751 0.74805,-2.849531 0.74805,-4.488281 z m -205.6289,2.49414 c -4.08571,-0.01514 -8.16785,0.107597 -12.23633,0.367188 v 12.539062 c 0,1.638754 0.23022,3.13453 0.69336,4.488281 0.49875,1.318133 1.35516,2.458048 2.5664,3.419922 1.24688,0.926257 2.93867,1.657023 5.07618,2.191407 2.13749,0.534371 4.86268,0.800781 8.17578,0.800781 3.31313,0 6.03827,-0.266433 8.17578,-0.800781 2.13747,-0.534384 3.81213,-1.26515 5.02344,-2.191407 1.24681,-0.961874 2.1013,-2.101789 2.56445,-3.419922 0.49874,-1.353751 0.74804,-2.849527 0.74805,-4.488281 V 56.121094 c -3.97637,-0.408879 -7.96908,-0.708963 -11.96876,-0.900391 v 10.585938 c 0,0.712509 -0.26834,1.319605 -0.80273,1.818359 -0.53439,0.463132 -1.74464,0.693359 -3.63281,0.693359 -1.8525,0 -3.04569,-0.230223 -3.58008,-0.693359 -0.53435,-0.498754 -0.80273,-1.10585 -0.80273,-1.818359 z m -18.75391,0.896484 c -4.05202,0.418437 -8.08068,1.005377 -12.07813,1.742188 v 7.648438 c 0,0.890621 -0.21313,1.549056 -0.64062,1.976562 -0.39187,0.427502 -1.01609,0.642578 -1.87109,0.642578 h -6.35938 v -8.33789 c -3.97831,1.001712 -7.91756,2.164581 -11.79687,3.541015 -0.11123,0.03946 -0.22092,0.08327 -0.33204,0.123047 v 12.849609 c 0,0.676876 0.14273,1.175469 0.42774,1.496094 0.32062,0.285014 0.81922,0.427734 1.49609,0.427735 h 18.00782 c 4.45312,0 7.74922,-0.890611 9.88671,-2.671876 2.17314,-1.781252 3.25977,-4.525465 3.25977,-8.230468 z m 46.06055,1.00586 v 10.201172 c 0,3.705003 1.06955,6.449216 3.20703,8.230468 2.17315,1.781265 5.48626,2.671876 9.93945,2.671876 h 13.03906 c 0.67688,0 1.15835,-0.142717 1.44336,-0.427735 0.32051,-0.320617 0.48047,-0.819218 0.48047,-1.496094 v -6.359375 c 0,-0.676879 -0.15989,-1.158364 -0.48047,-1.443359 -0.28497,-0.320617 -0.76648,-0.480469 -1.44336,-0.480469 h -10.74023 c -1.10442,0 -1.9246,-0.196014 -2.45899,-0.58789 -0.53438,-0.427503 -0.80078,-1.085936 -0.80078,-1.976563 v -6.5 c -4.05176,-0.684496 -8.11218,-1.30204 -12.18554,-1.832031 z m 33.3457,5.789062 v 13.390625 c 0,0.676876 0.14283,1.175469 0.42773,1.496094 0.32051,0.285014 0.81918,0.427734 1.4961,0.427735 h 7.85547 c 0.67687,0 1.15834,-0.142717 1.44336,-0.427735 0.3205,-0.320617 0.48046,-0.819218 0.48046,-1.496094 v -7.482421 h 9.45899 v 7.482421 c 0,0.676876 0.15985,1.175469 0.48047,1.496094 0.35641,0.285014 0.891,0.427734 1.60351,0.427735 h 8.07032 c 0.67691,0 1.15639,-0.142717 1.4414,-0.427735 0.32051,-0.320617 0.48242,-0.819218 0.48242,-1.496094 v -7.470703 c -11.13334,-1.544253 -22.18397,-3.73988 -33.24023,-5.919922 z m 105.80664,3.132813 c -4.89933,1.112117 -9.8394,2.037936 -14.80859,2.775391 h 2.73242 v 7.482421 c 0,0.676876 0.15989,1.175469 0.48047,1.496094 0.35641,0.285014 0.891,0.427734 1.60351,0.427735 h 8.06836 c 0.67688,0 1.15835,-0.142717 1.44336,-0.427735 0.32051,-0.320617 0.48047,-0.819218 0.48047,-1.496094 z m -229.5625,2.082031 c -6.12218,2.890159 -12.01116,6.271932 -17.5957,10.09961 h 20.63672 c 0.67687,0 1.15836,-0.142717 1.44335,-0.427735 0.32062,-0.320617 0.48047,-0.819218 0.48047,-1.496094 v -6.251953 c 0,-0.676879 -0.15985,-1.158364 -0.48047,-1.443359 -0.285,-0.320617 -0.76648,-0.480469 -1.44335,-0.480469 z m 163.13672,1.478516 c 0.3274,2.317638 1.18028,4.160609 2.56836,5.521484 1.81689,1.78125 4.59729,2.795545 8.33789,3.044922 l -1.71094,4.650391 c -0.24945,0.641246 -0.26665,1.156955 -0.0527,1.548828 0.21354,0.391876 0.7656,0.58789 1.65625,0.58789 h 6.73242 c 0.67687,0 1.21165,-0.123673 1.60351,-0.373047 0.3919,-0.249372 0.67734,-0.660466 0.85547,-1.230468 l 1.81641,-5.128906 h 4.2207 c 0.67692,0 1.15643,-0.142717 1.44141,-0.427735 0.3205,-0.320617 0.48242,-0.819218 0.48242,-1.496094 V 70.65625 c -6.37777,0.168521 -12.76399,0.02617 -19.12891,-0.439453 -2.94976,-0.215787 -5.88802,-0.509449 -8.82226,-0.845703 z m 44.89062,0.09766 c -3.89055,0.441625 -7.79349,0.764182 -11.70312,0.972656 v 5.626953 c 0,0.676876 0.14287,1.175469 0.42773,1.496094 0.32051,0.285014 0.81926,0.427734 1.4961,0.427735 h 7.85547 c 0.67687,0 1.15839,-0.142717 1.44335,-0.427735 0.32051,-0.320617 0.48047,-0.819218 0.48047,-1.496094 z"
       transform="matrix(0.26458333,0,0,0.26458333,44.118278,30.711144)"
       id="path1246"
       inkscape:connector-curvature="0" />
  </g>
</svg>
